HIERARCHY
ROOT Hips
{
  OFFSET 16.2024 39.9099 -6.40059
  CHANNELS 6 Xposition Yposition Zposition Zrotation Xrotation Yrotation
  JOINT LeftHip
  {
    OFFSET 3.43 0 0
    CHANNELS 6 Xposition Yposition Zposition Zrotation Xrotation Yrotation
    JOINT LeftKnee
    {
      OFFSET 0 -18.47 0
      CHANNELS 6 Xposition Yposition Zposition Zrotation Xrotation Yrotation
      JOINT LeftAnkle
      {
        OFFSET 0 -17.95 0
        CHANNELS 6 Xposition Yposition Zposition Zrotation Xrotation Yrotation
        End Site
        {
          OFFSET 0 -3.12 0
        }
      }
    }
  }
  JOINT RightHip
  {
    OFFSET -3.43 0 0
    CHANNELS 6 Xposition Yposition Zposition Zrotation Xrotation Yrotation
    JOINT RightKnee
    {
      OFFSET 0 -18.47 0
      CHANNELS 6 Xposition Yposition Zposition Zrotation Xrotation Yrotation
      JOINT RightAnkle
      {
        OFFSET 0 -17.95 0
        CHANNELS 6 Xposition Yposition Zposition Zrotation Xrotation Yrotation
        End Site
        {
          OFFSET 0 -3.12 0
        }
      }
    }
  }
  JOINT Chest
  {
    OFFSET 0 4.57 0
    CHANNELS 6 Xposition Yposition Zposition Zrotation Xrotation Yrotation
    JOINT CS_BVH
    {
      OFFSET 0 6.57 0
      CHANNELS 6 Xposition Yposition Zposition Zrotation Xrotation Yrotation
      JOINT LeftCollar
      {
        OFFSET 1.06 4.19 1.76
        CHANNELS 6 Xposition Yposition Zposition Zrotation Xrotation Yrotation
        JOINT LeftShoulder
        {
          OFFSET 5.81 0 0
          CHANNELS 6 Xposition Yposition Zposition Zrotation Xrotation Yrotation
          JOINT LeftElbow
          {
            OFFSET 0 -12.08 0
            CHANNELS 6 Xposition Yposition Zposition Zrotation Xrotation Yrotation
            JOINT LeftWrist
            {
              OFFSET 0 -9.82 0
              CHANNELS 6 Xposition Yposition Zposition Zrotation Xrotation Yrotation
              End Site
              {
                OFFSET 0 -7.37 0
              }
            }
          }
        }
      }
      JOINT RightCollar
      {
        OFFSET -1.06 4.19 1.76
        CHANNELS 6 Xposition Yposition Zposition Zrotation Xrotation Yrotation
        JOINT RightShoulder
        {
          OFFSET -6.06 0 0
          CHANNELS 6 Xposition Yposition Zposition Zrotation Xrotation Yrotation
          JOINT RightElbow
          {
            OFFSET 0 -11.08 0
            CHANNELS 6 Xposition Yposition Zposition Zrotation Xrotation Yrotation
            JOINT RightWrist
            {
              OFFSET 0 -9.82 0
              CHANNELS 6 Xposition Yposition Zposition Zrotation Xrotation Yrotation
              End Site
              {
                OFFSET 0 -7.14001 0
              }
            }
          }
        }
      }
      JOINT Neck
      {
        OFFSET 0 4.05 0
        CHANNELS 6 Xposition Yposition Zposition Zrotation Xrotation Yrotation
        JOINT Head
        {
          OFFSET 0 5.19 0
          CHANNELS 6 Xposition Yposition Zposition Zrotation Xrotation Yrotation
          End Site
          {
            OFFSET 0 4.14001 0
          }
        }
      }
    }
  }
}
MOTION
Frames:	4
Frame Time:	0.0333333
-13.6843 39.5693 -15.5083 -2.9446 -3.60395 7.04988 3.43 9.12756e-010 -1.60032e-011 1.80574 -10.8724 -3.28958 1.57372e-008 -18.47 1.10541e-007 -7.07403 26.0481 12.0638 1.5558e-008 -17.95 3.38894e-008 13.0486 -10.136 -0.930779 -3.43 -9.12749e-010 1.60023e-011 -6.03078 -17.4576 1.76724 4.27853e-008 -18.47 -1.42709e-007 3.36817 21.6152 15.3149 -2.59563e-008 -17.95 2.98131e-008 3.97453 3.97934 -1.03035 -1.05168e-009 4.57 4.29798e-011 -0.505767 2.10452 0.409973 -1.67976e-009 6.57 2.67812e-010 -2.06649 4.21216 1.19758 1.06 4.19 1.76 -7.61298 6.13325 -4.06353 5.81 -5.77685e-010 -2.42139e-010 29.1497 7.53356 -24.0953 -4.70036e-009 -12.08 6.73172e-010 20.9305 -38.0108 -0.461577 -1.10605e-009 -9.82 -1.29618e-009 1.51733 11.915 -0.58258 -1.06 4.19 1.76 5.911 6.69879 9.55936 -6.06 -5.89036e-008 -4.70616e-010 -24.0549 -15.1868 66.4698 -7.10448e-009 -11.08 -5.62306e-011 -152.609 -42.3634 -131.637 -1.10928e-009 -9.82 1.29577e-009 2.21347 6.18744 -0.398439 4.66962e-010 4.05 1.19922e-010 -2.22557 -2.97325 -1.37393 3.38399e-009 5.19 -2.27068e-010 1.08647 6.15765 -3.4914 
-13.8148 39.5849 -15.5351 -2.81594 -3.38649 6.28638 3.43 9.12756e-010 -1.60032e-011 1.98136 -11.0709 -3.15283 1.57372e-008 -18.47 1.10541e-007 -7.43607 26.2532 12.3837 1.5558e-008 -17.95 3.38894e-008 12.9541 -9.98801 -0.934405 -3.43 -9.12749e-010 1.60023e-011 -6.5249 -17.3555 1.28751 4.27853e-008 -18.47 -1.42709e-007 3.08709 21.7008 13.7517 -2.59563e-008 -17.95 2.98131e-008 4.1565 4.01962 -1.06654 -1.05168e-009 4.57 4.29798e-011 -0.3666 1.99717 0.552183 -1.67976e-009 6.57 2.67812e-010 -1.88341 3.99478 1.47253 1.06 4.19 1.76 -9.22011 5.90792 -5.00605 5.81 -5.77685e-010 -2.42139e-010 31.438 6.49832 -23.5405 -4.70036e-009 -12.08 6.73172e-010 20.8426 -38.0813 0.464053 -1.10605e-009 -9.82 -1.29618e-009 1.95309 12.1808 -0.543482 -1.06 4.19 1.76 5.55681 6.4011 9.7987 -6.06 -5.89036e-008 -4.70616e-010 -22.3152 -16.9215 69.555 -7.10448e-009 -11.08 -5.62306e-011 -154.483 -38.9254 -134.947 -1.10928e-009 -9.82 1.29577e-009 4.18443 6.42327 -0.695706 4.66962e-010 4.05 1.19922e-010 -2.80268 -2.58861 -1.43775 3.38399e-009 5.19 -2.27068e-010 0.661932 5.48205 -3.86931 
-13.9347 39.5878 -15.4577 -2.74728 -3.89442 5.8054 3.43 9.12756e-010 -1.60032e-011 2.12644 -10.3318 -2.9531 1.57372e-008 -18.47 1.10541e-007 -7.3101 26.058 12.5208 1.5558e-008 -17.95 3.38894e-008 12.9248 -9.91743 -0.934374 -3.43 -9.12749e-010 1.60023e-011 -6.95342 -16.1002 0.715675 4.27853e-008 -18.47 -1.42709e-007 3.00357 21.4761 12.9066 -2.59563e-008 -17.95 2.98131e-008 3.61859 3.51082 -0.951954 -1.05168e-009 4.57 4.29798e-011 -0.246487 2.01404 0.592179 -1.67976e-009 6.57 2.67812e-010 -1.66652 4.02662 1.55872 1.06 4.19 1.76 -10.5185 6.02921 -5.79037 5.81 -5.77685e-010 -2.42139e-010 33.8283 5.87177 -22.9625 -4.70036e-009 -12.08 6.73172e-010 21.1183 -38.4221 0.196372 -1.10605e-009 -9.82 -1.29618e-009 1.43755 12.4137 -0.635072 -1.06 4.19 1.76 6.47214 6.54936 10.3745 -6.06 -5.89036e-008 -4.70616e-010 -22.2029 -18.1516 71.4477 -7.10448e-009 -11.08 -5.62306e-011 -156.007 -36.2555 -137.3 -1.10928e-009 -9.82 1.29577e-009 6.51074 6.38289 -1.03588 4.66962e-010 4.05 1.19922e-010 -3.02862 -1.86571 -1.34706 3.38399e-009 5.19 -2.27068e-010 0.771942 4.80035 -4.13799 
-14.0838 39.5753 -15.5017 -2.08842 -3.11078 5.31454 3.43 9.12756e-010 -1.60032e-011 1.43758 -10.9557 -3.29011 1.57372e-008 -18.47 1.10541e-007 -7.01013 25.7299 13.1814 1.5558e-008 -17.95 3.38894e-008 12.6821 -9.57078 -0.932608 -3.43 -9.12749e-010 1.60023e-011 -8.06075 -16.6893 0.213671 4.27853e-008 -18.47 -1.42709e-007 2.93425 21.8554 12.6302 -2.59563e-008 -17.95 2.98131e-008 3.51251 3.45539 -0.931006 -1.05168e-009 4.57 4.29798e-011 -0.398599 1.81348 0.761085 -1.67976e-009 6.57 2.67812e-010 -1.72164 3.63356 1.87083 1.06 4.19 1.76 -11.9595 5.57022 -6.2292 5.81 -5.77685e-010 -2.42139e-010 35.4791 4.61743 -22.3018 -4.70036e-009 -12.08 6.73172e-010 21.1173 -38.4907 0.203563 -1.10605e-009 -9.82 -1.29618e-009 1.58326 12.5305 -0.623531 -1.06 4.19 1.76 6.25707 6.08929 10.7658 -6.06 -5.89036e-008 -4.70616e-010 -22.619 -19.0997 73.9456 -7.10448e-009 -11.08 -5.62306e-011 -156.494 -34.9846 -136.726 -1.10928e-009 -9.82 1.29577e-009 7.18836 5.86974 -1.09788 4.66962e-010 4.05 1.19922e-010 -3.81752 -1.73426 -1.23392 3.38399e-009 5.19 -2.27068e-010 0.783475 3.77407 -4.63847 
